<?xml version="1.0" standalone="no"?>
<!DOCTYPE svg PUBLIC "-//W3C//DTD SVG 20010904//EN"
 "http://www.w3.org/TR/2001/REC-SVG-20010904/DTD/svg10.dtd">
<svg version="1.0" xmlns="http://www.w3.org/2000/svg"
 width="127.000000pt" height="127.000000pt" viewBox="0 0 127.000000 127.000000"
 preserveAspectRatio="xMidYMid meet">
<metadata>
Created by potrace 1.11, written by Peter Selinger 2001-2013
</metadata>
<g transform="translate(0.000000,127.000000) scale(0.100000,-0.100000)"
fill="#000000" stroke="none">
<path d="M567 1254 c-1 -1 -31 -4 -67 -7 -83 -7 -207 -32 -288 -58 l-63 -21 6
-106 c10 -202 17 -291 31 -417 23 -204 91 -370 193 -470 68 -66 83 -77 184
-132 75 -40 79 -41 115 -28 50 17 168 81 211 113 131 98 215 260 237 457 18
164 28 524 15 557 -7 19 -23 30 -63 42 -80 24 -234 55 -313 62 -66 5 -195 11
-198 8z"/>
</g>
</svg>
